<svg width="2168" height="800" viewBox="0 0 2168 800" fill="none" xmlns="http://www.w3.org/2000/svg">
<g clip-path="url(#clip0_118_11)">
<g filter="url(#filter0_i_118_11)">
<path d="M354.103 954.463C267.797 871.017 85.8752 643.75 48.6423 402.257C191.565 195.913 521.72 -221.965 698.965 -242.732C920.521 -268.689 750.832 -25.2956 942.709 77.3099C1134.59 179.915 888.897 1094.88 354.103 954.463Z" fill="#5FE6C1" fill-opacity="0.1"/>
</g>
<g filter="url(#filter1_i_118_11)">
<path d="M1920.65 813.356C1982.13 680.182 2110.04 348.802 2129.91 88.6748C2016.96 -30.5958 1757.93 -248.139 1625.46 -164.147C1459.87 -59.1568 1593.93 80.8791 1454.57 295.176C1315.21 509.472 1527.52 1267.07 1920.65 813.356Z" fill="#FFF7F4" fill-opacity="0.1"/>
</g>
</g>
<defs>
<filter id="filter0_i_118_11" x="36.6423" y="-244.656" width="970.831" height="1217.74" filterUnits="userSpaceOnUse" color-interpolation-filters="sRGB">
<feFlood flood-opacity="0" result="BackgroundImageFix"/>
<feBlend mode="normal" in="SourceGraphic" in2="BackgroundImageFix" result="shape"/>
<feColorMatrix in="SourceAlpha" type="matrix" values="0 0 0 0 0 0 0 0 0 0 0 0 0 0 0 0 0 0 127 0" result="hardAlpha"/>
<feOffset dx="-12" dy="4"/>
<feGaussianBlur stdDeviation="16.5"/>
<feComposite in2="hardAlpha" operator="arithmetic" k2="-1" k3="1"/>
<feColorMatrix type="matrix" values="0 0 0 0 0 0 0 0 0 0 0 0 0 0 0 0 0 0 0.02 0"/>
<feBlend mode="normal" in2="shape" result="effect1_innerShadow_118_11"/>
</filter>
<filter id="filter1_i_118_11" x="1411.72" y="-182.959" width="721.197" height="1139.6" filterUnits="userSpaceOnUse" color-interpolation-filters="sRGB">
<feFlood flood-opacity="0" result="BackgroundImageFix"/>
<feBlend mode="normal" in="SourceGraphic" in2="BackgroundImageFix" result="shape"/>
<feColorMatrix in="SourceAlpha" type="matrix" values="0 0 0 0 0 0 0 0 0 0 0 0 0 0 0 0 0 0 127 0" result="hardAlpha"/>
<feOffset dx="3" dy="1"/>
<feGaussianBlur stdDeviation="30"/>
<feComposite in2="hardAlpha" operator="arithmetic" k2="-1" k3="1"/>
<feColorMatrix type="matrix" values="0 0 0 0 0 0 0 0 0 0 0 0 0 0 0 0 0 0 0.02 0"/>
<feBlend mode="normal" in2="shape" result="effect1_innerShadow_118_11"/>
</filter>
<clipPath id="clip0_118_11">
<rect width="2167.37" height="800" fill="white"/>
</clipPath>
</defs>
</svg>
